<svg xmlns="http://www.w3.org/2000/svg" viewBox="0 0 290 290" fill-rule="evenodd" clip-rule="evenodd" stroke-linejoin="round" stroke-miterlimit="2"><path d="M278.468 173.2l-117.836-70.4 8.852-14.82 5.66 3.38c2.355 1.404 5.448.624 6.856-1.728l11.032-18.464c1.404-2.355.624-5.448-1.728-6.856L118.124 20.6c-2.355-1.404-5.448-.624-6.856 1.728L100.24 40.8c-1.406 2.355-.626 5.449 1.728 6.856l58.932 35.2-36.8 61.632L79.4 117.8l27.032-45.252a5 5 0 00.673-2.506c0-2.742-2.257-5-5-5a5.005 5.005 0 00-4.257 2.378l-27.036 45.252-5.664-3.384c-2.355-1.404-5.448-.624-6.856 1.728L47.316 129.4c-1.406 2.355-.626 5.449 1.728 6.856l73.18 43.708c2.355 1.406 5.449.626 6.856-1.728l10.976-18.372a5.005 5.005 0 00-1.728-6.864l-5.664-3.384 22.84-38.216 117.836 70.4a5.974 5.974 0 012.908 5.124c0 3.274-2.694 5.968-5.968 5.968a5.974 5.974 0 01-3.06-.844l-103.248-61.692a4.995 4.995 0 00-2.622-.743c-2.743 0-5 2.257-5 5 0 1.782.952 3.434 2.494 4.327l103.252 61.68a15.972 15.972 0 008.188 2.259c8.76 0 15.969-7.209 15.969-15.969a15.986 15.986 0 00-7.781-13.71h-.004zM117.288 31.756L181.88 70.34l-5.904 9.88L111.4 41.636l5.888-9.88zm5.768 137.06l-64.592-38.584 5.848-9.788 5.66 3.38 58.928 35.2-5.844 9.792zM171.94 236.84h-10.224v-2.052c-.022-20.024-16.492-36.494-36.516-36.516H55.492c-20.022.024-36.49 16.494-36.512 36.516v2.052H8.752c-2.743 0-5 2.257-5 5v23.26c0 2.743 2.257 5 5 5h163.2c2.743 0 5-2.257 5-5v-23.26c0-2.743-2.257-5-5-5h-.012zm-5 23.26H13.74v-13.26H57.5c2.743 0 5-2.257 5-5s-2.257-5-5-5H28.98v-2.052c.015-14.539 11.973-26.498 26.512-26.516H125.2c14.54.015 26.501 11.976 26.516 26.516v2.052H81c-2.743 0-5 2.257-5 5s2.257 5 5 5h85.94v13.26z" fill-rule="nonzero"></path></svg>