<svg xmlns="http://www.w3.org/2000/svg" height="512" viewBox="0 0 128 128" width="512"><path d="M62.005 77.778c.041 0 .082 0 .123-.005a93.97 93.97 0 007.127-.776 1.75 1.75 0 00-.506-3.463 91.573 91.573 0 01-6.863.748 1.75 1.75 0 00.119 3.5z"></path><path d="M121.426 100.962a4.7 4.7 0 00-4.045-.867c-3.334.827-7.273 1.558-11.649 2.189a275.17 275.17 0 01-1.85-4.3 1.929 1.929 0 00-.061-.13c-3.243-6.2-3.33-9.666-3.406-12.723a16.758 16.758 0 00-1.957-8.56c2.915-2.083 8.951-7.476 9.08-16.423.172.139.341.267.517.422 1.73 1.546 2.152 4.634 2.559 7.621.62 4.546 1.452 10.649 8.4 10.649a13.914 13.914 0 001.771-.119 1.75 1.75 0 001.392-2.413c-2.132-5.082-3.142-11.837-3.485-23.313-.161-5.63-2.58-10.022-6.636-12.051-4.136-2.068-9.222-1.334-14.408 2.044-8.444-3.431-20.56-.416-29.559 1.828-2.194.547-4.267 1.064-6.062 1.436C54.113 47.9 50.542 42.073 46.762 35.9a36.342 36.342 0 00-4.688-6.574 23.149 23.149 0 00-9.887-6.051 28.369 28.369 0 00-6.085-9.13A1.749 1.749 0 0023.723 14a20.453 20.453 0 00-7.779 13.089 17.365 17.365 0 00-3.759 4.994 46.477 46.477 0 00-5.134 15.439c-.181 1.022-.374 2.114-.617 3.334-1.191 5.944-1.173 11.752 6.954 13.935 3.992 1.066 9.772-3.976 13.392-7.715.183 8.476 1.107 11.608 4.834 19.267-.017 6.864-4.858 19.773-7.457 26.209a127.654 127.654 0 01-13.539-2.452 4.748 4.748 0 00-2.269 9.22C21.313 112.5 42.117 114.4 64 114.4c21.9 0 42.7-1.9 55.652-5.088a4.753 4.753 0 001.774-8.354zM110.487 44.08c2.866 1.433 4.58 4.721 4.7 9.022.308 10.294 1.159 17 2.868 22.186-2.7-.4-3.321-2.753-3.977-7.565-.47-3.447-1-7.354-3.7-9.764a15.482 15.482 0 00-3.251-2.264 25.852 25.852 0 00-.676-2.719 15.436 15.436 0 00-5.272-7.983c3.488-1.849 6.732-2.202 9.308-.913zm-47.752 5.6c1.863-.386 3.969-.911 6.2-1.467 1.952-.487 4.017-1 6.126-1.475V57.75A4.255 4.255 0 0170.81 62h-12a4.255 4.255 0 01-4.25-4.25v-8.618a13.851 13.851 0 008.175.552zM24.69 17.8a26.124 26.124 0 013.356 4.8 16.849 16.849 0 00-3.405.208 16.578 16.578 0 00-4.315 1.339A17.526 17.526 0 0124.69 17.8zm10.419 58.087a1.752 1.752 0 00-.177-.725c-4.253-8.7-4.692-10.811-4.692-22.592a1.75 1.75 0 00-3.093-1.122c-4.416 5.29-10.629 10.563-12.854 9.962-4.713-1.266-5.707-3.479-4.427-9.868.249-1.25.446-2.365.632-3.41a43.1 43.1 0 014.817-14.489 13.6 13.6 0 019.891-7.38c4.889-.8 10 1.172 14.391 5.539a34.091 34.091 0 014.18 5.929c1.974 3.221 4.2 6.84 7.283 9.318v10.7a7.759 7.759 0 007.75 7.75h12a7.759 7.759 0 007.75-7.75V46.012c10.6-2.025 21.432-2.133 24.547 7.993 4.253 13.823-7.333 20.2-7.824 20.468a1.75 1.75 0 00-.656 2.492c2.167 3.379 2.218 5.426 2.289 8.258.082 3.258.183 7.311 3.77 14.194.51 1.207.988 2.32 1.438 3.352q-3.064.382-6.362.7A113.714 113.714 0 0091.13 91.7c-1.786-3.751-4.568-5.742-7.024-7.5-2.142-1.533-3.993-2.858-5-5.118a1.747 1.747 0 00-2.013-.99c-.186.045-18.723 4.482-31.559 1.088a1.75 1.75 0 00-2.178 1.433c-.442 2.955-2.132 5.579-3.767 8.118a30.3 30.3 0 00-2.765 4.917c-1.651 4.1-2.78 7.5-3.512 9.927q-2.863-.264-5.565-.576c3.162-7.907 7.532-20.166 7.362-27.112zm57.064 27.9C83.5 104.51 73.9 104.9 64 104.9c-9.5 0-18.725-.36-27.119-1.025a115.891 115.891 0 013.193-8.926 27.82 27.82 0 012.461-4.329 29 29 0 003.882-7.643c11.511 2.412 25.76-.242 30.169-1.188a18.328 18.328 0 005.483 5.251c2.316 1.658 4.5 3.223 5.9 6.16a106.351 106.351 0 014.204 10.591zm27.577.917a1.235 1.235 0 01-.934 1.209C106.126 109.04 85.634 110.9 64 110.9c-21.617 0-42.109-1.864-54.816-4.987a1.253 1.253 0 01-.453-2.2 1.193 1.193 0 011.046-.225C22.185 106.568 42.456 108.4 64 108.4s41.815-1.836 54.223-4.911a1.212 1.212 0 011.046.225 1.247 1.247 0 01.481.989z"></path><path d="M24.506 31.289a4.75 4.75 0 104.75 4.75 4.755 4.755 0 00-4.75-4.75zm0 6a1.25 1.25 0 111.25-1.25 1.252 1.252 0 01-1.25 1.25z"></path></svg>