<svg xmlns="http://www.w3.org/2000/svg" viewBox="0 0 512 512" fill-rule="evenodd" clip-rule="evenodd" stroke-linejoin="round" stroke-miterlimit="2"><g fill-rule="nonzero"><path d="M375 101.042c-31.063-8.862-60.501-.827-80.779 22.044-25.282 28.532-30.749 72.711-13.931 112.574 8.94 21.18 2.654 50.944-3.424 79.728-9.069 42.948-18.451 87.354 21.552 107.877.153.083.306.153.463.219a87.91 87.91 0 0034.528 7.658 67.826 67.826 0 0029.554-6.707c45.337-21.655 70.441-91.588 89.02-157.134 13.546-47.805 11.735-87.035-5.376-116.609-14.233-24.592-38.32-41.289-71.607-49.65zm63.056 162.298c-16.66 58.797-40.962 128.754-81.329 148.036-15.606 7.444-32.601 7.088-51.925-1.1-29.9-15.535-22.428-50.931-13.778-91.898 6.542-30.963 13.303-62.986 2.601-88.346-14.444-34.222-9.845-73.34 11.426-97.34 16.697-18.84 40.168-25.142 66.078-17.699l.236.062c29.405 7.361 50.502 21.788 62.709 42.877 15.08 26.051 16.42 61.518 3.982 105.408z"></path><path d="M407.477 302.661c-3.733-1.349-7.915.607-9.271 4.337-3.176 8.758-6.414 16.929-9.627 24.277a7.255 7.255 0 00-.546 2.759c0 3.97 3.267 7.236 7.236 7.236a7.248 7.248 0 006.572-4.205c3.337-7.634 6.694-16.094 9.974-25.142 1.346-3.73-.611-7.908-4.338-9.262zM289.676 106.392c17.033-4.47 27.056-23.847 22.33-43.203a37.972 37.972 0 00-16.954-23.723 29.561 29.561 0 00-22.793-3.449c-17.028 4.474-27.052 23.851-22.329 43.2a37.938 37.938 0 0016.954 23.723 30.259 30.259 0 0015.539 4.391c2.448 0 4.886-.315 7.253-.939zm-25.675-30.599c-2.857-11.732 2.506-23.302 11.955-25.783a14.143 14.143 0 013.61-.471c2.862.04 5.66.855 8.096 2.357a23.415 23.415 0 0110.297 14.713c2.857 11.735-2.51 23.301-11.959 25.786a15.171 15.171 0 01-11.706-1.89 23.409 23.409 0 01-10.293-14.708v-.004zM326.743 73.229a27.491 27.491 0 0018.286 7.166c.603 0 1.207 0 1.815-.058 16.416-1.145 29.032-17.549 28.119-36.558a36.604 36.604 0 00-11.649-25.601 27.438 27.438 0 00-20.101-7.104c-16.412 1.146-29.028 17.55-28.118 36.555a36.576 36.576 0 0011.648 25.6zm17.479-47.731c.281 0 .563-.034.827-.034a13.067 13.067 0 018.643 3.515 22.018 22.018 0 016.806 15.474c.529 11.024-6.203 20.837-14.663 21.424a13.004 13.004 0 01-9.482-3.478 22.05 22.05 0 01-6.806-15.473c-.517-11.025 6.198-20.837 14.675-21.428zM402.614 84.294c1.366.234 2.749.352 4.135.352 13.095-.421 24.156-10.152 26.241-23.086a28.464 28.464 0 00-4.449-21.304 24.708 24.708 0 00-16.127-10.359c-14.533-1.935-28.137 8.253-30.368 22.743a28.461 28.461 0 004.454 21.304 24.703 24.703 0 0016.114 10.35zm-6.318-29.053c.795-6.745 6.906-11.697 13.67-11.078 2.729.5 5.144 2.078 6.699 4.375a13.908 13.908 0 012.068 10.417c-.79 6.747-6.906 11.702-13.671 11.073a10.316 10.316 0 01-6.695-4.379 13.875 13.875 0 01-2.071-10.408zM430.212 97.973c2.592 9.739 11.499 16.555 21.577 16.512 14.537-.49 26.229-12.582 26.229-27.128 0-2.314-.296-4.619-.881-6.859a22.52 22.52 0 00-10.785-13.765c-12.203-5.993-27.168-1.097-33.469 10.949a26.716 26.716 0 00-2.671 20.291zm15.254-13.141a12.003 12.003 0 019.986-6.401 8.03 8.03 0 013.916.984 8.083 8.083 0 013.833 5.016 12.155 12.155 0 01-1.331 9.213c-2.408 5.216-8.595 7.628-13.898 5.417a8.088 8.088 0 01-3.838-5.016 12.192 12.192 0 011.332-9.213zM498.834 120.551a18.777 18.777 0 00-10.987-9.581c-10.693-3.055-22.027 3.072-25.328 13.691a21.603 21.603 0 00.98 16.508 18.782 18.782 0 0010.983 9.581c1.855.608 3.795.918 5.748.918 8.946-.222 16.824-6.104 19.579-14.618a21.598 21.598 0 00-.975-16.499zm-12.724 11.81c-.781 3.161-3.925 5.196-7.129 4.615a4.39 4.39 0 01-2.531-2.291 7.034 7.034 0 01-.231-5.376 6.722 6.722 0 015.838-4.809c.438-.001.874.068 1.291.203a4.368 4.368 0 012.534 2.295 7.033 7.033 0 01.228 5.363zM231.706 305.51c16.822-39.863 11.355-84.05-13.931-112.57-20.262-22.875-49.708-30.922-80.771-22.048-33.287 8.353-57.378 25.058-71.607 49.621-17.115 29.57-18.926 68.804-5.376 116.609 18.579 65.554 43.683 135.491 89.021 157.134a67.838 67.838 0 0029.557 6.707 87.91 87.91 0 0034.528-7.658c.157-.066.31-.141.463-.219 40.003-20.523 30.621-64.921 21.553-107.876-6.087-28.756-12.373-58.5-3.437-79.7zm-24.5 174.612c-19.336 8.196-36.323 8.556-51.929 1.104-40.371-19.298-64.681-89.239-81.333-148.036-12.438-43.89-11.098-79.357 3.982-105.412 12.207-21.089 33.304-35.516 62.709-42.877l.236-.062a74.986 74.986 0 0120.654-3.039 59.247 59.247 0 0145.42 20.738c21.28 24.004 25.87 63.122 11.43 97.34-10.706 25.364-3.941 57.382 2.601 88.354 8.654 40.963 16.127 76.355-13.77 91.89zM239.716 105.863a29.619 29.619 0 00-22.793 3.449 37.992 37.992 0 00-16.954 23.727c-4.705 19.348 5.318 38.729 22.33 43.199a28.62 28.62 0 007.257.935 30.355 30.355 0 0015.54-4.383 37.984 37.984 0 0016.954-23.723c4.701-19.344-5.302-38.73-22.334-43.204zm8.27 39.784a23.457 23.457 0 01-10.296 14.717 15.176 15.176 0 01-11.707 1.881c-9.448-2.481-14.812-14.059-11.958-25.786a23.455 23.455 0 0110.296-14.721 15.217 15.217 0 0111.702-1.882c9.466 2.49 14.833 14.06 11.98 25.791h-.017zM165.156 150.167c.608.041 1.212.062 1.815.062a27.504 27.504 0 0018.286-7.167 36.591 36.591 0 0011.644-25.588c.91-19.021-11.706-35.408-28.118-36.554a27.45 27.45 0 00-20.097 7.1 36.577 36.577 0 00-11.653 25.605c-.909 19 11.711 35.4 28.123 36.542zM158.3 98.825a13.075 13.075 0 018.638-3.506c.273 0 .554 0 .827.029 8.477.591 15.193 10.399 14.668 21.428a22.026 22.026 0 01-6.807 15.469 12.935 12.935 0 01-9.478 3.482c-8.481-.592-15.196-10.4-14.671-21.424a22.047 22.047 0 016.823-15.478zM105.259 154.492c1.386.002 2.77-.116 4.135-.352a24.677 24.677 0 0016.127-10.337 28.45 28.45 0 004.45-21.3c-2.217-14.497-15.829-24.692-30.364-22.743A24.68 24.68 0 0083.5 110.097a28.448 28.448 0 00-4.482 21.309c2.087 12.933 13.147 22.664 26.241 23.086zm-9.924-36.1a10.061 10.061 0 018.398-4.548c6.136.412 11.177 5.132 11.992 11.227a13.885 13.885 0 01-2.067 10.404 10.313 10.313 0 01-6.695 4.383c-6.766.619-12.879-4.335-13.675-11.082a13.884 13.884 0 012.047-10.384zM60.216 184.335c10.077.04 18.981-6.774 21.577-16.512a26.726 26.726 0 00-2.676-20.295c-6.303-12.045-21.267-16.939-33.469-10.945a22.523 22.523 0 00-10.785 13.77 27.156 27.156 0 00-.878 6.85c0 14.547 11.692 26.641 26.231 27.132zm-11.422-30.058a8.075 8.075 0 013.838-5.016 7.983 7.983 0 013.912-.988 12.004 12.004 0 019.99 6.417 12.163 12.163 0 011.327 9.209 8.07 8.07 0 01-3.837 5.016c-5.304 2.214-11.494-.198-13.902-5.417a12.16 12.16 0 01-1.328-9.221zM24.149 180.816a18.804 18.804 0 00-10.983 9.585 21.604 21.604 0 00-.975 16.503c2.754 8.51 10.629 14.389 19.571 14.609a18.335 18.335 0 005.756-.918 18.763 18.763 0 0010.983-9.581 21.608 21.608 0 00.98-16.503c-3.29-10.63-14.636-16.764-25.332-13.695zm11.401 23.735a4.382 4.382 0 01-2.535 2.291c-3.197.58-6.336-1.446-7.125-4.598a7.03 7.03 0 01.228-5.376 4.387 4.387 0 012.534-2.286c3.202-.582 6.344 1.448 7.129 4.606a7.056 7.056 0 01-.231 5.363z"></path></g></svg>