<svg xmlns="http://www.w3.org/2000/svg" viewBox="0 0 290 290" fill-rule="evenodd" clip-rule="evenodd" stroke-linejoin="round" stroke-miterlimit="2"><path d="M102.416 146a4.6 4.6 0 00-.104-.52 4.547 4.547 0 00-.616-1.912 4.928 4.928 0 00-.212-.476L61.54 87.236c7.32-1.876 14-4.264 20.508-6.596a171.24 171.24 0 0132.256-9.072 5.016 5.016 0 004.178-4.932c0-2.743-2.257-5-5-5-.25 0-.499.019-.746.056a179.456 179.456 0 00-34.06 9.532 168.816 168.816 0 01-26.524 7.86 55.192 55.192 0 01-40.4-7.428 5 5 0 00-3-1c-2.743 0-5 2.257-5 5 0 1.573.742 3.056 2 4A62.41 62.41 0 0041.144 90.12c.472 0 .984-.056 1.464-.068l-37.92 53.032c-.079.155-.15.314-.212.476a4.566 4.566 0 00-.616 1.912 4.832 4.832 0 00-.104.52c0 27.064 22.27 49.334 49.334 49.334 27.064 0 49.334-22.27 49.334-49.334l-.008.008zm-14.72-5H18.472L53.08 92.6 87.696 141zM53.08 185.336c-19.688-.027-36.485-14.811-39.012-34.336H92.1c-2.529 19.528-19.329 34.311-39.02 34.336z" fill-rule="nonzero"></path><path d="M286.144 145.48a4.566 4.566 0 00-.616-1.912 4.928 4.928 0 00-.212-.476L247.4 90.06c.48 0 .992.068 1.464.068a62.41 62.41 0 0035.392-10.464 5.004 5.004 0 002-4c0-2.743-2.257-5-5-5a5 5 0 00-3 1 54.549 54.549 0 01-40.4 7.42 168.895 168.895 0 01-26.528-7.86 156.503 156.503 0 00-48.8-11V46.452a17.423 17.423 0 00-5.412-12.6 17.506 17.506 0 005.412-12.654c0-9.6-7.9-17.5-17.5-17.5s-17.5 7.9-17.5 17.5c0 4.778 1.957 9.354 5.412 12.654a17.423 17.423 0 00-5.412 12.6v200.44H80.5c-2.743 0-5 2.257-5 5v29.356c0 2.743 2.257 5 5 5h129c2.743 0 5-2.257 5-5v-29.356c0-2.743-2.257-5-5-5h-72V46.452c0-4.114 3.386-7.5 7.5-7.5s7.5 3.386 7.5 7.5v185.2c0 2.743 2.257 5 5 5s5-2.257 5-5V70.236a148.72 148.72 0 0145.444 10.4c6.512 2.332 13.2 4.724 20.512 6.596l-39.94 55.86c-.079.155-.15.314-.212.476a4.547 4.547 0 00-.616 1.912 4.6 4.6 0 00-.104.52c0 27.064 22.27 49.334 49.334 49.334 27.064 0 49.334-22.27 49.334-49.334a4.614 4.614 0 00-.108-.52zM204.5 276.252h-119v-19.36h119v19.36zM145 13.752c4.114 0 7.5 3.386 7.5 7.5s-3.386 7.5-7.5 7.5-7.5-3.386-7.5-7.5c.004-4.113 3.387-7.496 7.5-7.5zM271.528 141h-69.224l34.616-48.4 34.608 48.4zm-34.612 44.336c-19.689-.027-36.487-14.81-39.016-34.336h78.032c-2.527 19.527-19.326 34.311-39.016 34.336z" fill-rule="nonzero"></path></svg>