<svg xmlns="http://www.w3.org/2000/svg" viewBox="0 0 290 290" fill-rule="evenodd" clip-rule="evenodd" stroke-linejoin="round" stroke-miterlimit="2"><path d="M281.248 18.876H8.748c-2.743 0-5 2.257-5 5v156c0 2.743 2.257 5 5 5h94.516c8.184 20.679 30.614 32.269 52.216 26.98V252.2l-6.62-8.036a5.174 5.174 0 00-7.72 0l-6.62 8.036v-23.168c0-2.743-2.257-5-5-5s-5 2.257-5 5v37.094c0 2.743 2.257 5 5 5a5.003 5.003 0 003.86-1.822l11.62-14.1 11.62 14.1a5.003 5.003 0 003.86 1.822c2.743 0 5-2.257 5-5V208.16c16.772-8.456 26.485-26.642 24.184-45.284H234.5c2.743 0 5-2.257 5-5V141.04h16.832c2.743 0 5-2.257 5-5V67.708c0-2.743-2.257-5-5-5H239.5V45.876c0-2.743-2.257-5-5-5h-179c-2.743 0-5 2.257-5 5v16.832H33.664c-2.743 0-5 2.257-5 5v68.332c0 2.743 2.257 5 5 5H50.5v16.836c0 2.743 2.257 5 5 5h27c2.743 0 5-2.257 5-5s-2.257-5-5-5h-22V136.04c0-2.743-2.257-5-5-5H38.664V72.708H55.5c2.743 0 5-2.257 5-5V50.876h169v16.832c0 2.743 2.257 5 5 5h16.832v58.332H234.5c-2.743 0-5 2.257-5 5v16.836h-42.224c-6.32-17.919-23.358-29.975-42.358-29.975-24.64 0-44.916 20.276-44.916 44.916 0 2.364.186 4.724.558 7.059h-86.8v-146h262.488v146H206c-2.743 0-5 2.257-5 5s2.257 5 5 5h75.248c2.743 0 5-2.257 5-5v-156c0-2.743-2.257-5-5-5zM145 133.14c19.2 0 35 15.8 35 35s-15.8 35-35 35-35-15.8-35-35c.022-19.192 15.808-34.978 35-35z" fill-rule="nonzero"></path><path d="M145 193.596h.004c13.967 0 25.46-11.493 25.46-25.46s-11.493-25.46-25.46-25.46-25.46 11.493-25.46 25.46v.004c.018 13.958 11.498 25.438 25.456 25.456zm0-40.916h.004c8.481 0 15.46 6.979 15.46 15.46 0 8.481-6.979 15.46-15.46 15.46-8.481 0-15.46-6.979-15.46-15.46.009-8.476 6.98-15.449 15.456-15.46zM169.564 72.876c2.743 0 5-2.257 5-5s-2.257-5-5-5h-49.128c-2.743 0-5 2.257-5 5s2.257 5 5 5h49.128zM96.2 90.876c0 2.743 2.257 5 5 5h87.58c2.743 0 5-2.257 5-5s-2.257-5-5-5H101.2c-2.743 0-5 2.257-5 5z" fill-rule="nonzero"></path></svg>