<svg xmlns="http://www.w3.org/2000/svg" viewBox="0 0 290 290" fill-rule="evenodd" clip-rule="evenodd" stroke-linejoin="round" stroke-miterlimit="2"><path d="M279.496 87.996c6.708-6.704 8.568-17.152 5.236-29.416a77.087 77.087 0 00-20.28-33.032 77.087 77.087 0 00-33.032-20.28c-12.248-3.332-22.708-1.476-29.412 5.236L59.436 153.072a5.003 5.003 0 00-1.465 3.536c0 2.743 2.258 5.001 5.001 5.001a5.003 5.003 0 003.536-1.465l37.404-37.404c9.032-8.972 31.124-2.096 48.288 15.064a75.705 75.705 0 0113.64 18.368 5.005 5.005 0 004.442 2.704c2.743 0 5-2.257 5-5 0-.799-.191-1.586-.558-2.296a85.774 85.774 0 00-15.452-20.844c-13.236-13.232-28.58-20.856-41.56-21.792l11.16-11.16c4.076-4.044 11.072-4.98 19.704-2.636a73.566 73.566 0 0146.284 46.276c2.348 8.64 1.408 15.636-2.636 19.704l-97.496 97.496a45.437 45.437 0 00-1.496-8.544 77.087 77.087 0 00-20.28-33.032 77.087 77.087 0 00-33.032-20.28 45.39 45.39 0 00-8.54-1.5l14.944-14.944a5.003 5.003 0 001.465-3.536c0-2.743-2.258-5.001-5.001-5.001a5.003 5.003 0 00-3.536 1.465l-28.748 28.752c-6.708 6.704-8.568 17.152-5.236 29.412a77.087 77.087 0 0020.28 33.032 77.087 77.087 0 0033.032 20.28 43.235 43.235 0 0011.296 1.6 24.842 24.842 0 0018.116-6.852l79.784-79.76v63.74a5.015 5.015 0 003.484 4.764 5 5 0 005.596-1.872l10.088-14.24 10.08 14.24a5.005 5.005 0 004.08 2.11c2.743 0 5-2.257 5-5v-76.262c0-2.743-2.257-5-5-5s-5 2.257-5 5v60.552l-5.08-7.18a5.005 5.005 0 00-4.08-2.11c-1.62 0-3.143.788-4.08 2.11l-5.088 7.2v-58.052l101.72-101.72zm-74.988 50.8a83.429 83.429 0 00-53.312-53.304 45.39 45.39 0 00-8.54-1.5l66.4-66.4c4.068-4.068 11.068-5.008 19.724-2.656a67.062 67.062 0 0128.58 17.704 67.065 67.065 0 0117.704 28.584c2.352 8.656 1.408 15.66-2.656 19.724l-66.404 66.4a45.437 45.437 0 00-1.496-8.544v-.008zM61.204 275.084a67.062 67.062 0 01-28.58-17.704A67.062 67.062 0 0114.92 228.8c-2.352-8.656-1.408-15.66 2.656-19.724a15.164 15.164 0 0111.068-3.924c2.927.039 5.836.464 8.652 1.264A67.065 67.065 0 0165.88 224.12a69.43 69.43 0 0116.8 25.696 55.276 55.276 0 00-6-7.06c-13.476-13.472-30.74-17.324-39.3-8.76a5.003 5.003 0 00-1.465 3.536c0 2.743 2.258 5.001 5.001 5.001a5.003 5.003 0 003.536-1.465c3.868-3.868 15.452-.944 25.16 8.76 9.128 9.128 12.032 19.5 9.56 24.032a21.96 21.96 0 01-17.968 1.224z" fill-rule="nonzero"></path></svg>