<svg xmlns="http://www.w3.org/2000/svg" viewBox="0 0 290 290" fill-rule="evenodd" clip-rule="evenodd" stroke-linejoin="round" stroke-miterlimit="2"><path d="M124.104 276.252H13.748V51.072L44 20.824V44h-9c-2.743 0-5 2.257-5 5s2.257 5 5 5h14c2.743 0 5-2.257 5-5V13.752h141.748V75.5c0 2.743 2.257 5 5 5s5-2.257 5-5V8.752c0-2.743-2.257-5-5-5H49a5.004 5.004 0 00-3.536 1.464L5.216 45.464A5.004 5.004 0 003.752 49v232.252c0 2.743 2.257 5 5 5h115.352c2.743 0 5-2.257 5-5s-2.257-5-5-5z" fill-rule="nonzero"></path><path d="M137.4 90.668c2.743 0 5-2.257 5-5s-2.257-5-5-5H72.08c-2.743 0-5 2.257-5 5s2.257 5 5 5h65.32zM159.748 116h-110c-2.743 0-5 2.257-5 5s2.257 5 5 5h110c2.743 0 5-2.257 5-5s-2.257-5-5-5zM159.748 140h-110c-2.743 0-5 2.257-5 5s2.257 5 5 5h110c2.743 0 5-2.257 5-5s-2.257-5-5-5zM159.748 164h-110c-2.743 0-5 2.257-5 5s2.257 5 5 5h110c2.743 0 5-2.257 5-5s-2.257-5-5-5zM164.748 193c0-2.743-2.257-5-5-5h-110c-2.743 0-5 2.257-5 5s2.257 5 5 5h110c2.743 0 5-2.257 5-5zM93.088 226.924a103.902 103.902 0 00-21.72 13.636 18.458 18.458 0 00-2.8-8.508 7.946 7.946 0 00-6.4-3.48c-6.764-.096-14.164 8.38-17.036 12.06a4.999 4.999 0 00-.898 2.859c0 2.743 2.257 5 5 5A5 5 0 0053 246.78a37.297 37.297 0 017.928-7.704 26.64 26.64 0 01.648 3.908c.4 3.392.892 7.6 4.916 9.2a6.627 6.627 0 002.468.476 14.114 14.114 0 008.356-4.06 95.355 95.355 0 0119.804-12.544 5.01 5.01 0 002.984-4.576c0-2.743-2.257-5-5-5-.694 0-1.381.144-2.016.424v.02z" fill-rule="nonzero"></path><path d="M281.248 224.696h-54.54v-14.744h4.532c2.743 0 5-2.257 5-5v-6.944a144.268 144.268 0 017.96-50.112 36.81 36.81 0 002.232-12.668v-.04c0-20.351-16.746-37.096-37.096-37.096-20.35 0-37.096 16.745-37.096 37.096 0 3.814.588 7.605 1.744 11.24a158.563 158.563 0 018.444 48.18v10.328c0 2.743 2.257 5 5 5h4.532v14.748H137.4c-2.743 0-5 2.257-5 5v32.48c0 2.743 2.257 5 5 5h9.692v14.076c0 2.743 2.257 5 5 5H266.56c2.743 0 5-2.257 5-5s-2.257-5-5-5H157.108v-9.064h124.14c2.743 0 5-2.257 5-5v-32.48c0-2.743-2.257-5-5-5zm-97.74-81.296a27.1 27.1 0 01-1.268-8.191c0-14.863 12.23-27.092 27.092-27.092 14.862 0 27.092 12.229 27.092 27.092v.007a26.889 26.889 0 01-1.624 9.24 153.999 153.999 0 00-8.56 53.54v1.944h-33.82v-5.32a168.391 168.391 0 00-8.912-51.22zm18.452 66.552h14.748V224.7H201.96v-14.748zm74.288 47.224H142.416v-22.48h133.832v22.48z" fill-rule="nonzero"></path></svg>