<svg xmlns="http://www.w3.org/2000/svg" viewBox="0 0 290 290" fill-rule="evenodd" clip-rule="evenodd" stroke-linejoin="round" stroke-miterlimit="2"><path d="M137.268 90.668c2.743 0 5-2.257 5-5s-2.257-5-5-5H71.932c-2.743 0-5 2.257-5 5s2.257 5 5 5h65.336zM159.6 116h-110c-2.743 0-5 2.257-5 5s2.257 5 5 5h110c2.743 0 5-2.257 5-5s-2.257-5-5-5zM159.6 140h-110c-2.743 0-5 2.257-5 5s2.257 5 5 5h110c2.743 0 5-2.257 5-5s-2.257-5-5-5zM159.6 164h-110c-2.743 0-5 2.257-5 5s2.257 5 5 5h110c2.743 0 5-2.257 5-5s-2.257-5-5-5zM164.6 193c0-2.743-2.257-5-5-5h-110c-2.743 0-5 2.257-5 5s2.257 5 5 5h110c2.743 0 5-2.257 5-5zM153.372 226.924a104.05 104.05 0 00-21.716 13.636 18.47 18.47 0 00-2.8-8.508 7.946 7.946 0 00-6.4-3.48c-6.648-.096-14.168 8.376-17.036 12.06a4.996 4.996 0 00-1.056 3.074c0 2.743 2.257 5 5 5 1.54 0 2.997-.711 3.944-1.926a37.34 37.34 0 017.932-7.704 26.65 26.65 0 01.652 3.908c.4 3.392.888 7.6 4.912 9.2a6.627 6.627 0 002.468.476 14.133 14.133 0 008.332-4.06 95.327 95.327 0 0119.8-12.544 5.01 5.01 0 002.984-4.576c0-2.743-2.257-5-5-5-.694 0-1.381.144-2.016.424v.02z" fill-rule="nonzero"></path><path d="M280.124 55.928c-2.863-8.108-10.573-13.563-19.172-13.563a20.36 20.36 0 00-18.344 11.563l-37.008 77.38V8.752c0-2.743-2.257-5-5-5H48.848a5.004 5.004 0 00-3.536 1.464L5.064 45.464A5.004 5.004 0 003.6 49v232.252c0 2.743 2.257 5 5 5h192c2.743 0 5-2.257 5-5v-41.664c0-2.743-2.257-5-5-5s-5 2.257-5 5v36.664h-182V51.072l30.248-30.248V44H36c-2.743 0-5 2.257-5 5s2.257 5 5 5h12.848c2.743 0 5-2.257 5-5V13.752H195.6V152.2l-17.052 35.656a5.015 5.015 0 00-.488 2.244l.58 34.324c.046 2.711 2.288 4.916 4.999 4.916a5.002 5.002 0 003.073-1.056l27.088-21.08a5.005 5.005 0 001.436-1.788l64.06-133.948a20.208 20.208 0 00.828-15.54zm-9.848 11.224L206.72 200.036l-18.252 14.216-.4-23.132 63.56-132.88a10.35 10.35 0 019.324-5.877c5.67 0 10.335 4.665 10.335 10.335 0 1.543-.346 3.066-1.011 4.458v-.004z" fill-rule="nonzero"></path></svg>