<svg xmlns="http://www.w3.org/2000/svg" viewBox="0 0 480.182 480.182"><path d="M376.22 150.117a171.998 171.998 0 00-68.116-14.048 171.015 171.015 0 00-67.952 14.048 170.292 170.292 0 00-37.936-11.384l39.016-32.512a8 8 0 002.304-9.12l-16-40a8 8 0 00-7.432-5.032h-104a8 8 0 00-7.432 5.032l-16 40a8 8 0 002.304 9.12l40.608 33.84C42.77 160.166-16.172 251.705 3.934 344.519c20.105 92.814 111.644 151.756 204.458 131.651a171.962 171.962 0 0031.665-10.149c87.234 37.601 188.433-2.635 226.034-89.87 37.6-87.234-2.636-188.433-89.871-226.034zM218.664 78.013l5.6 14.056h-14.032l8.432-14.056zm-12.688-9.944l-9.872 16.456-9.872-16.456h19.744zm-34.808 5.984l10.808 18.016h-25.224l14.416-18.016zm-15.712-5.984l-14.4 18.016-10.824-18.016h25.224zm-37.912 9.944l8.432 14.056H111.92l5.624-14.056zm4.656 30.056h91.808l-28.8 24H151l-28.8-24zm49.904 356c-86.156-.084-155.932-69.995-155.849-156.151S86.25 151.986 172.407 152.069a156.005 156.005 0 0148.73 7.856 173.526 173.526 0 00-17.456 11.784C128.216 154.116 52.778 201.03 35.185 276.494S64.506 427.396 139.97 444.989s150.902-29.321 168.495-104.785c12.666-54.33-8.058-111.001-52.785-144.343a122.93 122.93 0 0117.376-6.664c65.678 55.721 73.749 154.134 18.029 219.811a155.95 155.95 0 01-118.981 55.061zm15.928-278.928c-67.934 66.119-69.405 174.791-3.286 242.725a169.695 169.695 0 003.086 3.091c-67.896 8.747-130.027-39.203-138.774-107.099-8.747-67.896 39.203-130.027 107.098-138.774a123.946 123.946 0 0115.947-1.016c5.328.021 10.648.379 15.929 1.073zm52.072 226.496c-57.199-37.426-73.228-114.135-35.802-171.334a123.76 123.76 0 0135.802-35.802c57.199 37.434 73.222 114.149 35.788 171.348a123.775 123.775 0 01-35.788 35.788zm52.256-226.456h.016c67.901-8.671 129.975 39.344 138.646 107.245s-39.344 129.975-107.245 138.646a123.954 123.954 0 01-31.674-.035c67.96-66.092 69.474-174.763 3.382-242.723a164.834 164.834 0 00-3.125-3.133zm134.591 223.951a155.937 155.937 0 01-118.846 54.938 155.148 155.148 0 01-49.032-7.856 172.785 172.785 0 0017.48-11.808c75.497 17.608 150.974-29.32 168.582-104.817s-29.32-150.974-104.817-168.582-150.974 29.32-168.582 104.816c-12.679 54.363 8.059 111.071 52.816 144.43a122.33 122.33 0 01-17.408 6.688c-65.616-55.78-73.589-154.191-17.809-219.806 55.78-65.616 154.191-73.589 219.807-17.809 65.615 55.779 73.589 154.19 17.809 219.806zM258.445 42.411l15.997-15.997 11.314 11.314-15.998 15.997zM50.454 37.724l11.314-11.313 15.997 15.997-11.313 11.314zM160.104.069h16v24h-16z"></path></svg>